<svg xmlns="http://www.w3.org/2000/svg" fill="#435aa7" width="512" height="512" viewBox="0 0 551 551"><path d="M502 492c12 0 23-4 32-12L378 324l-11 7-28 21-29 14c-12 5-24 8-34 8h-1a137 137 0 01-63-22l-28-21-11-7L17 480c9 8 20 12 32 12h453zM31 225c-12-7-22-16-31-26v237l138-137-107-74zm489 0l-107 74 138 137V199c-9 9-19 18-31 26zM502 59H49c-16 0-28 5-36 16C4 86 0 99 0 115c0 13 6 27 17 42s23 27 36 35l63 44 49 35 31 21 14 10 16 11a285 285 0 0034 19l15 2h1c5 0 10 0 15-2l18-9a327 327 0 0033-21l13-10 143-100c15-10 28-23 38-37s15-31 15-47c0-13-5-25-15-35a48 48 0 00-34-14z"/></svg>