<svg xmlns="http://www.w3.org/2000/svg" fill="#435aa7" width="512" height="512" viewBox="0 0 550.8 550.8"><path d="M501.6 491.8c12.4 0 23.1-4.1 32.2-12.2l-156-156-10.8 7.8c-11.7 8.6-21.2 15.3-28.4 20.1-7.3 4.8-17 9.7-29 14.8-12.1 5-23.4 7.5-33.8 7.5h-.6c-10.5 0-21.7-2.5-33.8-7.5s-21.8-9.9-29-14.8c-7.3-4.8-16.7-11.5-28.4-20.1l-10.8-7.8-156.3 156c9.1 8.1 19.9 12.2 32.2 12.2h452.5zM31 225.3c-11.6-7.8-22-16.7-31-26.7V436l137.5-137.5L31 225.3zm489.1 0l-106.7 73.2L550.9 436V198.6c-8.9 9.8-19.2 18.7-30.8 26.7zM501.6 59H49.2c-15.8 0-27.9 5.3-36.4 16C4.3 85.6 0 99 0 114.9c0 12.9 5.6 26.9 16.9 42s23.3 26.9 36 35.5l63 43.8 49.5 34.4 31 21.7 13.1 9.4 16.6 11.7c4.4 3 9.7 6.3 16 10 6.2 3.7 12.1 6.5 17.7 8.3 5.5 1.8 10.7 2.8 15.4 2.8h.6c4.7 0 9.8-.9 15.4-2.8 5.5-1.8 11.4-4.6 17.7-8.3 6.2-3.7 11.6-7 16-10s9.9-6.9 16.6-11.7l13.1-9.4 143.8-99.9c15-10.4 27.5-23.1 37.5-37.8s15.1-30.2 15.1-46.4c0-13.5-4.9-25.1-14.6-34.7-9.9-9.7-21.5-14.5-34.8-14.5z"/></svg>