<svg xmlns="http://www.w3.org/2000/svg" fill="#435aa7" width="512" height="512" viewBox="0 0 439 439" class="logo"><path d="M409 115a218 218 0 00-300-80 218 218 0 00-67 319c28 38 64 64 108 79 5 1 9 0 11-2s4-5 4-9v-41l-7 1a125 125 0 01-36-1c-6-1-13-4-19-8s-10-10-12-18l-3-6-9-15c-4-5-8-9-12-11l-2-1-4-4-3-4c-1-2 0-2 2-3l8-1 6 1c3 0 8 3 14 7 5 3 10 8 14 14 4 8 9 14 15 18 7 4 13 6 19 6l16-1 13-4c2-13 7-23 14-30l-29-5c-9-2-18-6-27-11s-17-12-23-19-11-18-15-30-6-27-6-43c0-23 8-43 23-59-7-17-7-36 2-58 5-2 13 0 24 4l24 11 12 8a204 204 0 01110 0l11-7c7-5 16-9 26-13s18-5 23-3c9 22 9 41 2 58 15 17 23 36 23 59 0 16-2 31-6 43s-9 23-15 30-14 14-23 19-18 9-27 11c-9 3-18 4-29 5 10 9 15 22 15 41v60l3 9c2 3 6 3 12 2 44-15 80-41 108-80 28-38 41-81 41-128 1-40-9-77-29-110z"/></svg>