<svg xmlns="http://www.w3.org/2000/svg" fill="#435aa7" width="472" height="472" viewBox="0 0 472.2 472.2"><path d="M158.7 105.9c-4.9-8.6-11.2-12.9-18.8-12.9H71.6c-4.4 0-7.4 1.4-9.1 4.3-2.1 2.9-2 6.4.3 10.6l46 79.7c.2.2.2.3 0 .3L36.5 315.8c-1.9 3.6-1.9 7.1 0 10.3s4.9 4.9 8.9 4.9h68.2c7.2 0 13.4-4.4 18.6-13.1l73.4-130.2-46.9-81.8zm276.9-91.1c2.1-4 2.1-7.5 0-10.6-1.7-2.9-4.7-4.3-8.8-4.3H358c-7.4 0-13.5 4.3-18.3 12.8L188.1 281.6l96.8 177.6c4.6 8.6 10.8 12.9 18.8 12.9h68.2c4.2 0 7.2-1.4 9.1-4.3 1.9-3.2 1.8-6.8-.3-10.6l-95.9-175.6v-.3L435.6 14.8z"/></svg>